<svg width="17" height="21" viewBox="0 0 17 21" fill="none" xmlns="http://www.w3.org/2000/svg">
<path d="M4.46429 9.78571H11.6071V7.10714C11.6071 5.14007 10.0028 3.53571 8.03571 3.53571C6.06864 3.53571 4.46429 5.14007 4.46429 7.10714V9.78571ZM16.0714 11.125V19.1607C16.0714 19.9001 15.4715 20.5 14.7321 20.5H1.33929C0.599888 20.5 0 19.9001 0 19.1607V11.125C0 10.3856 0.599888 9.78571 1.33929 9.78571H1.78571V7.10714C1.78571 3.67522 4.60379 0.857142 8.03571 0.857142C11.4676 0.857142 14.2857 3.67522 14.2857 7.10714V9.78571H14.7321C15.4715 9.78571 16.0714 10.3856 16.0714 11.125Z" fill="white"/>
</svg>
