<svg width="24" height="21" viewBox="0 0 24 21" fill="none" xmlns="http://www.w3.org/2000/svg">
<path d="M8.92857 18.5C8.92857 19.4766 8.11942 20.2857 7.14286 20.2857C6.16629 20.2857 5.35714 19.4766 5.35714 18.5C5.35714 17.5234 6.16629 16.7143 7.14286 16.7143C8.11942 16.7143 8.92857 17.5234 8.92857 18.5ZM21.4286 18.5C21.4286 19.4766 20.6194 20.2857 19.6429 20.2857C18.6663 20.2857 17.8571 19.4766 17.8571 18.5C17.8571 17.5234 18.6663 16.7143 19.6429 16.7143C20.6194 16.7143 21.4286 17.5234 21.4286 18.5ZM23.2143 3.32143V10.4643C23.2143 10.9107 22.8655 11.3013 22.4191 11.3571L7.85435 13.0592C7.92411 13.38 8.03571 13.7009 8.03571 14.0357C8.03571 14.3566 7.8404 14.6496 7.70089 14.9286H20.5357C21.024 14.9286 21.4286 15.3331 21.4286 15.8214C21.4286 16.3097 21.024 16.7143 20.5357 16.7143H6.25C5.76172 16.7143 5.35714 16.3097 5.35714 15.8214C5.35714 15.389 5.98493 14.3426 6.20815 13.9102L3.73884 2.42857H0.892857C0.404576 2.42857 0 2.02399 0 1.53571C0 1.04743 0.404576 0.642857 0.892857 0.642857H4.46429C5.399 0.642857 5.4269 1.75893 5.56641 2.42857H22.3214C22.8097 2.42857 23.2143 2.83315 23.2143 3.32143Z" fill="white"/>
</svg>
