<svg width="45" height="45" viewBox="0 0 45 45" fill="none" xmlns="http://www.w3.org/2000/svg">
<path d="M43.8125 0.555803C44.3281 0.924106 44.5737 1.51339 44.4754 2.12723L38.1897 39.8415C38.1161 40.308 37.8214 40.7009 37.404 40.9464C37.183 41.0692 36.9129 41.1429 36.6429 41.1429C36.4464 41.1429 36.25 41.0938 36.0536 41.0201L24.9308 36.4777L18.9888 43.721C18.6942 44.0893 18.2522 44.2857 17.7857 44.2857C17.6138 44.2857 17.4174 44.2612 17.2455 44.1875C16.6317 43.9665 16.2143 43.3772 16.2143 42.7143V34.1451L37.4286 8.14286L11.1808 30.8549L1.48214 26.8772C0.917411 26.6562 0.549107 26.1406 0.5 25.5268C0.475446 24.9375 0.770089 24.3728 1.28571 24.0781L42.1429 0.506695C42.3884 0.359372 42.6585 0.285711 42.9286 0.285711C43.2478 0.285711 43.567 0.383928 43.8125 0.555803Z" fill="white"/>
</svg>
