<svg width="18" height="18" viewBox="0 0 18 18" fill="none" xmlns="http://www.w3.org/2000/svg">
<path d="M12.213 7.42857C12.213 4.94754 10.1941 2.92857 7.71303 2.92857C5.232 2.92857 3.21303 4.94754 3.21303 7.42857C3.21303 9.9096 5.232 11.9286 7.71303 11.9286C10.1941 11.9286 12.213 9.9096 12.213 7.42857ZM17.3559 15.7857C17.3559 16.4888 16.7733 17.0714 16.0702 17.0714C15.7287 17.0714 15.3972 16.9308 15.1662 16.6897L11.7208 13.2545C10.5456 14.0681 9.13937 14.5 7.71303 14.5C3.80566 14.5 0.641602 11.3359 0.641602 7.42857C0.641602 3.5212 3.80566 0.357142 7.71303 0.357142C11.6204 0.357142 14.7845 3.5212 14.7845 7.42857C14.7845 8.85491 14.3525 10.2612 13.5389 11.4364L16.9842 14.8817C17.2153 15.1127 17.3559 15.4442 17.3559 15.7857Z" fill="white"/>
</svg>
