<svg width="40" height="32" viewBox="0 0 40 32" fill="none" xmlns="http://www.w3.org/2000/svg">
<path d="M39.3451 4.30357C38.2648 5.875 36.9143 7.27455 35.3675 8.40402C35.392 8.74777 35.392 9.09152 35.392 9.43527C35.392 19.9196 27.4121 32 12.8273 32C8.33399 32 4.15988 30.6987 0.648717 28.4397C1.28711 28.5134 1.90095 28.5379 2.5639 28.5379C6.27148 28.5379 9.68443 27.2857 12.4099 25.1496C8.92327 25.0759 6.0014 22.7924 4.9947 19.6496C5.48577 19.7232 5.97684 19.7723 6.49247 19.7723C7.20452 19.7723 7.91657 19.6741 8.57952 19.5022C4.94559 18.7656 2.22015 15.5737 2.22015 11.7187C2.22015 11.6942 2.22015 11.6451 2.22015 11.6205C3.27595 12.2098 4.50363 12.5781 5.80497 12.6272C3.66881 11.2031 2.26925 8.77232 2.26925 6.02232C2.26925 4.54911 2.66211 3.19866 3.34961 2.02009C7.25363 6.83259 13.1219 9.97544 19.7023 10.3192C19.5795 9.72991 19.5059 9.11607 19.5059 8.50223C19.5059 4.13169 23.0416 0.571428 27.4367 0.571428C29.7201 0.571428 31.7826 1.52902 33.2313 3.07589C35.0237 2.73214 36.7425 2.06919 38.2648 1.16071C37.6755 3.00223 36.4233 4.54911 34.7782 5.53125C36.3742 5.35938 37.921 4.91741 39.3451 4.30357Z" fill="white"/>
</svg>
